<svg xmlns="http://www.w3.org/2000/svg" viewBox="0 0 107.65 141.5"><defs><style>.cls-1{fill:#0cf;}</style></defs><g id="图层_2" data-name="图层 2"><g id="图层_1-2" data-name="图层 1"><rect class="cls-1" x="23.8" width="60.03" height="100.48" rx="30.02"/><path class="cls-1" d="M103.14,63.47h0a4.48,4.48,0,0,0-4.48,4.06c-2,23.39-21.35,41.8-44.84,41.8S11,90.92,9,67.53a4.48,4.48,0,0,0-4.48-4.06h0A4.49,4.49,0,0,0,0,68.33c2.29,26.56,23.2,47.73,49.3,49.93v13.92H34.82a4.25,4.25,0,0,0-4.18,4.26v.8a4.25,4.25,0,0,0,4.18,4.26h38A4.24,4.24,0,0,0,77,137.24v-.8a4.25,4.25,0,0,0-3.48-4.19,5.38,5.38,0,0,0-.69-.07H58.33V118.26c26.1-2.21,47-23.37,49.3-49.93A4.49,4.49,0,0,0,103.14,63.47Z"/></g></g></svg>