<svg xmlns="http://www.w3.org/2000/svg" viewBox="0 0 171.96 141.9"><defs><style>.cls-1{fill:#0cf;}</style></defs><g id="图层_2" data-name="图层 2"><g id="图层_1-2" data-name="图层 1"><path class="cls-1" d="M60.18,77.4c32.62,0,59.17,22.06,60.16,55a2.57,2.57,0,0,1-1.8,2.5q-22.25,7-58.36,7t-58.37-7a2.59,2.59,0,0,1-1.76-1.94l0-.56C1,99.46,27.56,77.4,60.18,77.4ZM129,64.5c23.3,0,42.28,19.77,43,44.44a2,2,0,0,1-1.35,1.9Q154.74,116.1,129,116.1h-.76A54.2,54.2,0,0,0,100,76.46a41.41,41.41,0,0,1,29-12ZM60.18,0a34.4,34.4,0,0,1,0,68.8h0a34.4,34.4,0,0,1,0-68.8ZM129,8.6a25.8,25.8,0,1,1-25.8,25.8A25.8,25.8,0,0,1,129,8.6Z"/></g></g></svg>