<svg xmlns="http://www.w3.org/2000/svg" viewBox="0 0 147.48 147.48"><defs><style>.cls-1{fill:#0cf;}.cls-2{fill:#fff;}</style></defs><g id="图层_2" data-name="图层 2"><g id="图层_1-2" data-name="图层 1"><circle class="cls-1" cx="73.74" cy="73.74" r="73.74"/><rect class="cls-2" x="56.14" y="32.27" width="35.19" height="58.9" rx="17.59"/><path class="cls-2" d="M102.64,69.48h0A2.62,2.62,0,0,0,100,71.85a26.34,26.34,0,0,1-52.56,0,2.62,2.62,0,0,0-2.63-2.37h0a2.64,2.64,0,0,0-2.63,2.84,32,32,0,0,0,28.9,29.27v8.16H62.6a2.48,2.48,0,0,0-2.45,2.5v.46a2.48,2.48,0,0,0,2.45,2.5H84.88a2.49,2.49,0,0,0,2.45-2.5v-.47a2.48,2.48,0,0,0-2-2.45,2,2,0,0,0-.41,0h-8.5v-8.16a32,32,0,0,0,28.9-29.27A2.64,2.64,0,0,0,102.64,69.48Z"/></g></g></svg>