<svg xmlns="http://www.w3.org/2000/svg" viewBox="0 0 147.48 147.48"><defs><style>.cls-1{fill:#0cf;}.cls-2{fill:#ccc;}.cls-3{fill:#f03;}</style></defs><g id="图层_2" data-name="图层 2"><g id="图层_1-2" data-name="图层 1"><circle class="cls-1" cx="73.74" cy="73.74" r="73.74"/><path class="cls-2" d="M103.13,68.81h0a2.63,2.63,0,0,0-2.63,2.38,26.34,26.34,0,0,1-52.56,0,2.63,2.63,0,0,0-2.62-2.38h0a2.64,2.64,0,0,0-2.64,2.85,32,32,0,0,0,28.9,29.27v8.15h-8.5a2.5,2.5,0,0,0-2.45,2.5v.47a2.49,2.49,0,0,0,2.45,2.49H85.36a2.49,2.49,0,0,0,2.45-2.49v-.47a2.48,2.48,0,0,0-2-2.45,2.87,2.87,0,0,0-.41,0h-8.5v-8.16a32,32,0,0,0,28.9-29.26A2.63,2.63,0,0,0,103.13,68.81Z"/><path class="cls-2" d="M91.74,73.38c0-.54.07-1.07.07-1.62V50.35c0-10.33-7.89-18.74-17.59-18.74a17.41,17.41,0,0,0-15.1,9.15Z"/><path class="cls-2" d="M56.63,51.57V71.76c0,10.34,7.89,18.74,17.59,18.74a17.22,17.22,0,0,0,14-7.37Z"/><rect class="cls-3" x="75.58" y="18.15" width="5.48" height="108.07" rx="2.74" transform="translate(-28.1 76.52) rotate(-45)"/></g></g></svg>