<svg xmlns="http://www.w3.org/2000/svg" viewBox="0 0 147.48 147.48"><defs><style>.cls-1{fill:#0cf;}.cls-2{fill:#fff;}</style></defs><g id="图层_2" data-name="图层 2"><g id="图层_1-2" data-name="图层 1"><circle class="cls-1" cx="73.74" cy="73.74" r="73.74"/><path class="cls-2" d="M58.61,77.52c19.12,0,34.69,12.93,35.27,32.21a1.52,1.52,0,0,1-1.06,1.47q-13,4.13-34.21,4.13T24.4,111.2a1.53,1.53,0,0,1-1-1.14l0-.33C23.92,90.45,39.49,77.52,58.61,77.52ZM98.94,70c13.66,0,24.78,11.59,25.2,26.05a1.17,1.17,0,0,1-.8,1.11Q114,100.21,99,100.2H98.5A31.75,31.75,0,0,0,82,77a24.3,24.3,0,0,1,17-7ZM58.61,32.15a20.17,20.17,0,1,1,0,40.33h0a20.17,20.17,0,0,1,0-40.33Zm40.33,5A15.13,15.13,0,1,1,83.82,52.32,15.12,15.12,0,0,1,98.94,37.19Z"/></g></g></svg>