<svg xmlns="http://www.w3.org/2000/svg" viewBox="0 0 147.48 147.48"><defs><style>.cls-1{fill:#0cf;}.cls-2{fill:#ccc;}.cls-3{fill:#f03;}</style></defs><g id="图层_2" data-name="图层 2"><g id="图层_1-2" data-name="图层 1"><circle class="cls-1" cx="73.74" cy="73.74" r="73.74"/><path class="cls-2" d="M116.69,55.11a3.62,3.62,0,0,0-5.21-1.39L92.7,65.54V85.37l18.78,11.82a4.9,4.9,0,0,0,2.08.7,3.86,3.86,0,0,0,3.83-3.83V57.2A4.89,4.89,0,0,0,116.69,55.11Z"/><path class="cls-2" d="M36.05,48.85H35a5.29,5.29,0,0,0-4.87,5.21V95.8A5.05,5.05,0,0,0,35,101H87.83l.37,0Z"/><path class="cls-2" d="M92.7,92.45V54.06a5.05,5.05,0,0,0-4.87-5.21H49.09Z"/><rect class="cls-3" x="61.87" y="29.82" width="4.46" height="87.84" rx="2.23" transform="translate(-33.37 66.92) rotate(-45)"/></g></g></svg>