<svg xmlns="http://www.w3.org/2000/svg" viewBox="0 0 147.48 147.48"><defs><style>.cls-1{fill:#0cf;}.cls-2{fill:#fff;}</style></defs><g id="图层_2" data-name="图层 2"><g id="图层_1-2" data-name="图层 1"><circle class="cls-1" cx="73.74" cy="73.74" r="73.74"/><path class="cls-2" d="M73.74,30.29a43.45,43.45,0,1,0,43.45,43.45A43.46,43.46,0,0,0,73.74,30.29ZM71.28,48.93a3.1,3.1,0,0,1,6.2,0V66.27a3.1,3.1,0,0,1-6.2,0Zm2.46,52.72a27.66,27.66,0,0,1-17-49.13,3.1,3.1,0,1,1,3.91,4.82,21.43,21.43,0,0,0-7.93,16.73,21,21,0,1,0,41.95,0A21.57,21.57,0,0,0,87.54,58a3.11,3.11,0,1,1,4.13-4.64,27.82,27.82,0,0,1,9.24,20.73,27.39,27.39,0,0,1-27.17,27.58Z"/></g></g></svg>