<svg xmlns="http://www.w3.org/2000/svg" viewBox="0 0 147.48 147.48"><defs><style>.cls-1{fill:#0cf;}.cls-2{fill:#f03;}.cls-3{fill:#fff;}</style></defs><g id="图层_2" data-name="图层 2"><g id="图层_1-2" data-name="图层 1"><circle class="cls-1" cx="73.74" cy="73.74" r="73.74"/><path class="cls-2" d="M50.12,73.74c0,8.27,4.72,15.94,11.81,20.67s16.53,4.13,23.62,0A23.84,23.84,0,0,0,97.36,73.74c0-8.86-4.73-15.94-11.81-20.67s-16.53-4.13-23.62,0A24.56,24.56,0,0,0,50.12,73.74Z"/><path class="cls-3" d="M73.74,32.41a41.33,41.33,0,1,0,41.33,41.33A41.07,41.07,0,0,0,73.74,32.41Zm0,76.76a35.43,35.43,0,1,1,35.43-35.43A35.53,35.53,0,0,1,73.74,109.17Z"/></g></g></svg>