<svg xmlns="http://www.w3.org/2000/svg" viewBox="0 0 147.48 147.48"><defs><style>.cls-1{fill:#0cf;}.cls-2{fill:#fff;}</style></defs><g id="图层_2" data-name="图层 2"><g id="图层_1-2" data-name="图层 1"><circle class="cls-1" cx="73.74" cy="73.74" r="73.74"/><path class="cls-2" d="M118.8,64.76c-.49-2.62-2.07-4.32-4-4.27h-.41a12,12,0,0,1-12-12,13.48,13.48,0,0,1,1-4.58,5.41,5.41,0,0,0-1.82-6.55l-.13-.08L90,30.93l-.12-.05a5.47,5.47,0,0,0-2.22-.45,6,6,0,0,0-4.3,1.75C82,33.63,77.54,37.39,74,37.39s-8.06-3.84-9.48-5.32a6,6,0,0,0-4.32-1.78,5.53,5.53,0,0,0-2.19.44l-.12,0L46,37.31l-.12.08A5.39,5.39,0,0,0,44,43.93a13.28,13.28,0,0,1,1,4.57,12,12,0,0,1-12,12h-.41c-1.92,0-3.5,1.64-4,4.27a57.66,57.66,0,0,0-1,9,57.27,57.27,0,0,0,1,9c.5,2.6,2,4.27,3.93,4.27h.48A12,12,0,0,1,45,99a13.14,13.14,0,0,1-1,4.57,5.44,5.44,0,0,0,1.83,6.56l.1.07,11.3,6.31.12,0a5.44,5.44,0,0,0,2.22.45,5.88,5.88,0,0,0,4.32-1.83c1.33-1.43,5.93-5.54,9.62-5.54s8.26,4.08,9.67,5.65a6,6,0,0,0,4.35,1.86,5.48,5.48,0,0,0,2.18-.44l.12,0,11.7-6.46.12-.07a5.42,5.42,0,0,0,1.83-6.54,13.3,13.3,0,0,1-1-4.58,12,12,0,0,1,12-12h.41c1.91,0,3.5-1.65,4-4.27a58.33,58.33,0,0,0,1-9,60.23,60.23,0,0,0-1-9ZM73.54,89.68a15.95,15.95,0,1,1,15.94-16A16,16,0,0,1,73.54,89.68Z"/><path class="cls-2" d="M73.54,63.21A10.53,10.53,0,1,0,84.06,73.73,10.53,10.53,0,0,0,73.54,63.21Z"/></g></g></svg>