<svg xmlns="http://www.w3.org/2000/svg" viewBox="0 0 147.48 147.48"><defs><style>.cls-1{fill:#0cf;}.cls-2{fill:#fff;}</style></defs><g id="图层_2" data-name="图层 2"><g id="图层_1-2" data-name="图层 1"><circle class="cls-1" cx="73.74" cy="73.74" r="73.74"/><path class="cls-2" d="M94.76,101.18h-42a4.62,4.62,0,0,0,0,9.2h42a4.62,4.62,0,0,0,0-9.2ZM108,37.1H39.51a9.16,9.16,0,0,0-9.23,9V87.56a9.16,9.16,0,0,0,9.23,9H108a9.15,9.15,0,0,0,9.23-9V46.13a9.16,9.16,0,0,0-9.23-9ZM79.63,72.15V65.31A29.72,29.72,0,0,0,57,78.51,29.13,29.13,0,0,1,79.63,57.68V51.26L92.91,61.7Z"/></g></g></svg>