<svg xmlns="http://www.w3.org/2000/svg" viewBox="0 0 147.48 147.48"><defs><style>.cls-1{fill:#0cf;}.cls-2{fill:#fff;}</style></defs><g id="图层_2" data-name="图层 2"><g id="图层_1-2" data-name="图层 1"><circle class="cls-1" cx="73.74" cy="73.74" r="73.74"/><path class="cls-2" d="M34.93,47.64H87.84a5.05,5.05,0,0,1,4.87,5.22V94.62a5.05,5.05,0,0,1-4.87,5.22H34.93a5.05,5.05,0,0,1-4.87-5.22V52.86A5.3,5.3,0,0,1,34.93,47.64Zm57.78,16.7L111.5,52.51a3.63,3.63,0,0,1,5.22,1.39,4.93,4.93,0,0,1,.7,2.09V92.88a3.86,3.86,0,0,1-3.83,3.83,5,5,0,0,1-2.09-.7L92.71,84.18Z"/></g></g></svg>