<svg xmlns="http://www.w3.org/2000/svg" viewBox="0 0 147.48 147.48"><defs><style>.cls-1{fill:#0cf;}.cls-2{fill:#fff;}</style></defs><g id="图层_2" data-name="图层 2"><g id="图层_1-2" data-name="图层 1"><circle class="cls-1" cx="73.74" cy="73.74" r="73.74"/><path class="cls-2" d="M94.54,88.6H88.6a3,3,0,1,0,0,5.94h6v5.94a3,3,0,0,0,5.94,0V94.54h5.94a3,3,0,1,0,0-5.94h-6V82.65a3,3,0,0,0-5.94,0h0ZM76.62,80.22a23.82,23.82,0,0,0,13.53,34,32.74,32.74,0,0,1-6.17.76c-6.41.26-12.84.52-17.87.33-9.07,0-16.76.11-24.41-.71a15.23,15.23,0,0,1-6.66-2,5.93,5.93,0,0,1-2.89-5.23C31.77,92,43,79.77,57.6,79.8c6.1,0,12.22-.42,18.31.32l.71.1ZM64.82,32.15A20.8,20.8,0,1,1,44,52.86,20.94,20.94,0,0,1,64.82,32.15ZM97.51,109.4a17.83,17.83,0,0,1-.25-35.66h.25a17.83,17.83,0,0,1,0,35.66Z"/></g></g></svg>