<?xml version="1.0" standalone="no"?><!DOCTYPE svg PUBLIC "-//W3C//DTD SVG 1.1//EN" "http://www.w3.org/Graphics/SVG/1.1/DTD/svg11.dtd"><svg t="1604370005436" class="icon" viewBox="0 0 3139 1024" version="1.1" xmlns="http://www.w3.org/2000/svg" p-id="1579" xmlns:xlink="http://www.w3.org/1999/xlink" width="613.0859375" height="200"><defs><style type="text/css"></style></defs><path d="M609.745 188.51l76.8-76.8S572.51-11.637 381.673 4.654 88.436 151.273 39.563 265.309s-41.89 358.4 209.455 491.055c172.218 90.763 472.437 0 521.31-216.437 0 0 30.254-90.763 9.308-179.2H416.582v107.055h258.327s-6.982 132.654-123.345 186.182-262.982 30.254-335.128-48.873S121.018 442.18 137.31 332.8s141.964-218.764 251.346-221.09c109.381-2.328 167.563 25.6 221.09 76.8z" fill="#4C81EF" p-id="1580"></path><path d="M1077.527 388.655c83.782 0 151.273 67.49 151.273 151.272S1161.31 691.2 1077.527 691.2s-151.272-67.49-151.272-151.273 67.49-151.272 151.272-151.272m0-104.728c-141.963 0-256 114.037-256 256s114.037 256 256 256 256-114.036 256-256-114.036-256-256-256z" fill="#E21737" p-id="1581"></path><path d="M1629.09 388.655c83.783 0 151.274 67.49 151.274 151.272S1712.873 691.2 1629.09 691.2s-151.273-67.49-151.273-151.273 67.491-151.272 151.273-151.272m0-104.728c-141.964 0-256 114.037-256 256s114.036 256 256 256 256-114.036 256-256-116.364-256-256-256z" fill="#F5C329" p-id="1582"></path><path d="M2315.636 302.545v44.219s-79.127-97.746-200.145-51.2-162.91 132.654-179.2 211.781c-18.618 97.746 48.873 258.328 188.509 281.6 137.31 20.946 190.836-51.2 190.836-51.2 4.655 72.146-4.654 97.746-16.29 121.019-11.637 23.272-32.582 65.163-121.019 65.163-88.436 2.328-125.672-88.436-125.672-88.436l-97.746 37.236s13.964 37.237 72.146 93.091c55.854 55.855 190.836 79.127 290.909 20.946s102.4-211.782 102.4-211.782V302.545h-104.728z m-123.345 393.31c-88.436 0-130.327-65.164-139.636-95.419-6.982-25.6-18.619-86.109 6.981-137.309 37.237-74.472 123.346-83.782 153.6-74.472 32.582 9.309 109.382 48.872 107.055 146.618-2.327 93.09-41.891 160.582-128 160.582z" fill="#4F80ED" p-id="1583"></path><path d="M2497.164 30.255h104.727v744.727h-104.727z" fill="#23BF5A" p-id="1584"></path><path d="M2899.782 695.855c-93.091 0-118.691-79.128-118.691-79.128L3123.2 474.764s-41.89-151.273-174.545-181.528-223.419 44.219-262.982 118.691-37.237 200.146 16.29 283.928c55.855 81.454 167.564 104.727 223.419 97.745 58.182-6.982 128-27.927 188.509-109.382l-86.11-58.182c2.328-2.327-34.908 69.819-128 69.819zM2878.836 384c79.128-13.964 114.037 53.527 114.037 53.527l-230.4 95.418c0-48.872 23.272-132.654 116.363-148.945z" fill="#E11837" p-id="1585"></path></svg>