<?xml version="1.0" encoding="utf-8"?>
<!-- Generator: Adobe Illustrator 24.0.1, SVG Export Plug-In . SVG Version: 6.00 Build 0)  -->
<svg version="1.1" id="图层_1" xmlns="http://www.w3.org/2000/svg" xmlns:xlink="http://www.w3.org/1999/xlink" x="0px" y="0px"
	 viewBox="0 0 200 200" style="enable-background:new 0 0 200 200;" xml:space="preserve">
<style type="text/css">
	.st0{fill:#BBBBBB;}
	.st1{fill:#999999;}
	.st2{font-family:'MicrosoftYaHei';}
	.st3{font-size:14px;}
</style>
<g>
	<path class="st0" d="M37,144.5c1.1,0,1.8,0.7,1.8,1.8c0,1.1-0.7,1.8-1.8,1.8H19.4c-1.1,0-1.8-0.7-1.8-1.8c0-1.1,0.7-1.8,1.8-1.8
		C19.4,144.5,37,144.5,37,144.5z M172.3,130.6c1.1,0,1.8,0.7,1.8,1.8c0,1.1-0.7,1.8-1.8,1.8h-30.7v4.7c0,5.1-4,9.1-9.1,9.1h-5.5
		c0,1.1-0.5,2.2-1.3,3.1c-1.8,1.8-4.5,1.8-6.4,0l-2.9-3.1H46.1c-1.1,0-1.8-0.7-1.8-1.8c0-1.1,0.7-1.8,1.8-1.8h8
		c-1.2-1.6-1.8-3.5-1.8-5.5v-91c0-5.1,4-9.1,9.1-9.1h5.8v-4.7c0-5.1,4-9.1,9.1-9.1h71.4c5.1,0,9.1,4,9.1,9.1v91c0,2-0.7,4-1.8,5.5
		L172.3,130.6L172.3,130.6z M143.6,130.6h3.8c3.1,0,5.4-2.4,5.4-5.5V34.1c0-3.1-2.4-5.5-5.4-5.5H76c-3.1,0-5.4,2.4-5.4,5.5v4.7h62.1
		c5.1,0,9.1,4,9.1,9.1v82.7L143.6,130.6L143.6,130.6z M100.9,126.1c6.2-6.2,6.2-16.2,0-22.4c-2.9-2.9-6.9-4.6-11.1-4.6
		c-4.2,0-8.2,1.6-11.1,4.6c-6.2,6.2-6.2,16.2,0,22.4c2.9,2.9,6.9,4.6,11.1,4.6C93.8,130.6,97.8,129,100.9,126.1z M81.8,109.3
		c0.4,0.2,0.5,0.7,0.4,1.3c-1.3,2.2-1.5,5.1-0.5,7.5c0.2,0.5,0,0.9-0.5,1.3h-0.4c-0.4,0-0.7-0.2-0.9-0.5c-1.1-2.9-0.9-6.4,0.5-9.1
		C80.8,109.3,81.3,109.1,81.8,109.3L81.8,109.3z M138.1,139v-91c0-3.1-2.4-5.5-5.5-5.5H61.1c-3.1,0-5.4,2.4-5.4,5.5v91
		c0,3.1,2.4,5.5,5.4,5.5h51.8l-5.1-5.1c-1.2-1.2-1.7-3.1-1.1-4.7l-4.5-4.7c-3.4,2.9-7.8,4.5-12.3,4.6c-5.3,0-10-2-13.8-5.6
		c-7.6-7.5-7.6-19.8-0.1-27.4c0,0,0.1-0.1,0.1-0.1c3.6-3.6,8.5-5.6,13.8-5.6s10,2,13.8,5.6c7.1,7.1,7.4,18.6,1.3,26.2l4.7,4.7
		c1.6-0.5,3.5-0.4,4.7,1.1l11.3,11.3h7.1C135.6,144.5,138.1,142.1,138.1,139L138.1,139z M72.4,61.2c-1.1,0-1.8-0.7-1.8-1.8
		s0.7-1.8,1.8-1.8h31.8c1.1,0,1.8,0.7,1.8,1.8s-0.7,1.8-1.8,1.8H72.4z M114.7,69.3c1.1,0,1.8,0.7,1.8,1.8s-0.7,1.8-1.8,1.8H72.9
		c-1.1,0-1.8-0.7-1.8-1.8s0.7-1.8,1.8-1.8H114.7L114.7,69.3z M94.4,80.9c1.1,0,1.8,0.7,1.8,1.8c0,1.1-0.7,1.8-1.8,1.8H72
		c-1.1,0-1.8-0.7-1.8-1.8s0.7-1.8,1.8-1.8H94.4z M25,40.8c2,0,3.6,1.6,3.6,3.6c0,2-1.6,3.6-3.6,3.6c-2,0-3.6-1.6-3.6-3.6
		C21.4,42.5,23,40.9,25,40.8z M25,51.8c4,0,7.3-3.3,7.3-7.3c0-4-3.3-7.3-7.3-7.3c-4,0-7.3,3.3-7.3,7.3C17.7,48.5,21,51.8,25,51.8z
		 M177,54.9c-1.1,0-1.8-0.7-1.8-1.8s0.7-1.8,1.8-1.8c1.1,0,1.8,0.7,1.8,1.8C178.8,54.1,178.1,54.9,177,54.9z M177,47.6
		c-3.1,0-5.4,2.4-5.4,5.5c0,3.1,2.4,5.5,5.4,5.5s5.4-2.4,5.4-5.5C182.5,49.9,180.1,47.6,177,47.6z M44.2,28.6c0,1.1,0.7,1.8,1.8,1.8
		s1.8-0.7,1.8-1.8v-2.2H50c1.1,0,1.8-0.7,1.8-1.8s-0.7-1.8-1.8-1.8h-2.2v-2.2c0-1.1-0.7-1.8-1.8-1.8c-1.1,0-1.8,0.7-1.8,1.8v2.2
		h-2.2c-1.1,0-1.8,0.7-1.8,1.8s0.7,1.8,1.8,1.8h2.2C44.2,26.5,44.2,28.6,44.2,28.6z M39.9,79.6h-2.2v-2.2c0-1.1-0.7-1.8-1.8-1.8
		c-1.1,0-1.8,0.7-1.8,1.8v2.2h-2.2c-1.1,0-1.8,0.7-1.8,1.8s0.7,1.8,1.8,1.8h2.2v2.2c0,1.1,0.7,1.8,1.8,1.8c1.1,0,1.8-0.7,1.8-1.8
		v-2.2h2.2c1.1,0,1.8-0.7,1.8-1.8C41.7,80.4,41,79.6,39.9,79.6z"/>
	<path class="st0" d="M174.8,84.7h-2.2v-2.2c0-1.1-0.7-1.8-1.8-1.8c-1.1,0-1.8,0.7-1.8,1.8v2.2h-2.2c-1.1,0-1.8,0.7-1.8,1.8
		s0.7,1.8,1.8,1.8h2.2v2.2c0,1.1,0.7,1.8,1.8,1.8c1.1,0,1.8-0.7,1.8-1.8v-2.2h2.2c1.1,0,1.8-0.7,1.8-1.8
		C176.7,85.5,175.8,84.7,174.8,84.7"/>
</g>
<text transform="matrix(1 0 0 1 72.0002 181.1905)" class="st1 st2 st3">暂无数据</text>
</svg>
